<?xml version="1.0" standalone="no"?>
<!DOCTYPE svg PUBLIC "-//W3C//DTD SVG 20010904//EN"
        "http://www.w3.org/TR/2001/REC-SVG-20010904/DTD/svg10.dtd">
<svg version="1.0" xmlns="http://www.w3.org/2000/svg"
     width="300.000000pt" height="387.000000pt" viewBox="0 0 300.000000 387.000000"
     preserveAspectRatio="xMidYMid meet">
    <metadata>
        Created by potrace 1.10, written by Peter Selinger 2001-2011
    </metadata>
    <g transform="translate(0.000000,387.000000) scale(0.100000,-0.100000)"
       fill="#50832b" stroke="none">
        <path d="M2455 3672 c-23 -9 -54 -27 -70 -38 -17 -12 -40 -24 -52 -28 -12 -4
        -25 -17 -29 -29 -4 -12 -14 -33 -23 -46 -16 -26 -35 -89 -51 -175 -5 -27 -11
        -51 -14 -53 -2 -3 -45 13 -94 35 -49 22 -104 43 -123 46 -19 3 -46 8 -61 10
        -25 4 -82 -6 -118 -21 -8 -4 -20 -7 -27 -8 -6 0 -24 -11 -39 -25 -24 -23 -26
        -23 -15 -3 6 12 16 23 23 26 7 2 10 8 5 12 -4 5 -17 -1 -30 -13 -25 -24 -37
        -28 -37 -13 0 6 13 18 30 27 21 13 26 20 17 26 -20 13 -54 9 -67 -7 -11 -13
        -16 -12 -42 6 l-29 21 24 27 c27 29 41 61 27 61 -5 0 -11 -8 -15 -17 -3 -10
        -14 -28 -24 -40 l-19 -23 -47 26 c-49 28 -88 29 -225 8 l-45 -7 19 22 c11 11
        14 21 8 21 -7 0 -17 -9 -24 -20 -7 -11 -18 -20 -25 -20 -7 0 -33 -7 -58 -16
        -36 -12 -50 -13 -61 -3 -9 7 -14 8 -14 1 0 -6 5 -12 12 -14 6 -2 -6 -14 -26
        -26 -30 -18 -41 -20 -52 -11 -8 6 -14 8 -14 4 0 -4 -20 5 -44 19 -25 14 -48
        26 -52 26 -16 0 19 -28 54 -44 21 -10 39 -24 39 -32 0 -10 -6 -13 -16 -8 -9 3
        -25 8 -36 11 -15 4 -17 2 -6 -5 11 -8 9 -11 -10 -17 l-23 -8 22 -17 c29 -24
        29 -36 0 -16 -12 9 -31 16 -42 16 -18 0 -19 -1 -1 -20 22 -25 18 -25 -26 -2
        -24 12 -56 17 -109 17 -62 -1 -84 -6 -125 -28 -27 -15 -70 -34 -95 -43 -63
        -22 -247 -30 -340 -13 -41 7 -97 13 -125 13 -49 1 -50 0 -50 -29 0 -27 5 -32
        52 -47 112 -38 215 -121 324 -264 31 -40 69 -75 110 -100 l64 -39 127 1 c125
        0 127 0 138 -25 6 -14 34 -53 61 -87 27 -34 49 -67 49 -74 0 -7 -51 -62 -113
        -124 -137 -135 -205 -222 -263 -341 -68 -141 -95 -247 -95 -386 0 -112 1 -122
        45 -250 24 -74 52 -161 61 -193 25 -90 50 -137 105 -194 49 -52 50 -53 34 -78
        -14 -21 -15 -31 -5 -65 12 -39 8 -56 -20 -79 -3 -3 -14 -20 -23 -37 -10 -21
        -26 -35 -44 -39 -108 -23 -177 -74 -205 -152 -22 -62 -15 -122 14 -122 15 0
        18 -5 14 -22 -6 -24 27 -88 44 -88 5 0 12 -14 16 -31 9 -39 61 -99 86 -99 12
        0 28 14 39 33 18 30 70 77 86 77 3 0 15 -11 26 -25 11 -14 26 -25 33 -25 8 0
        37 -20 65 -45 28 -25 57 -45 65 -45 8 0 28 20 45 44 16 25 38 47 48 50 25 9
        60 65 68 111 5 34 14 45 52 70 53 34 80 34 136 1 23 -13 57 -26 76 -30 32 -6
        38 -13 64 -74 91 -208 106 -232 141 -232 41 0 75 21 75 46 0 25 -66 215 -124
        357 -34 84 -46 132 -28 111 5 -5 29 -58 53 -117 54 -134 79 -166 136 -174 43
        -6 127 15 195 48 l36 18 40 -39 c35 -35 45 -40 86 -40 29 0 49 -5 52 -13 2 -7
        25 -30 49 -50 l44 -38 26 50 c14 28 25 61 25 73 0 28 9 42 31 50 21 8 96 -62
        105 -98 8 -31 11 -29 55 21 57 65 72 129 45 195 -4 10 4 22 25 34 71 42 88
        128 43 218 -22 43 -25 61 -21 105 8 82 -4 108 -98 203 -97 100 -127 154 -152
        280 -13 68 -26 97 -65 157 -57 85 -68 128 -41 161 17 21 21 22 81 11 79 -14
        107 -4 165 61 60 67 101 157 135 300 50 207 56 256 57 445 0 194 -7 231 -60
        301 l-24 31 37 30 c38 31 44 47 77 209 3 11 23 42 46 67 28 33 43 59 46 87 5
        35 9 40 33 40 19 0 35 11 56 38 44 56 54 85 47 141 -6 49 -5 50 31 72 20 12
        35 27 33 33 -9 27 -165 13 -207 -18 -8 -7 -28 -18 -43 -26 -16 -8 -34 -28 -41
        -45 -13 -30 -79 -97 -128 -129 -15 -10 -31 -36 -42 -71 -9 -30 -21 -55 -27
        -55 -15 0 -10 26 15 82 52 115 56 139 36 199 -19 54 -19 54 3 79 12 14 26 28
        31 31 13 10 -2 29 -22 28 -9 0 -35 -8 -57 -17z m35 -15 c0 -12 -47 -63 -56
        -60 -14 5 -64 -14 -64 -24 0 -5 22 -6 48 -5 47 4 49 2 62 -28 11 -27 11 -38 1
        -64 -7 -17 -13 -37 -14 -43 -1 -16 -123 -18 -132 -3 -3 6 -11 10 -18 10 -6 0
        -4 -8 6 -17 13 -13 34 -18 77 -18 33 0 60 -3 60 -8 0 -4 -10 -23 -22 -42 -20
        -30 -29 -35 -61 -35 -21 0 -47 5 -58 10 -12 7 -19 7 -19 1 0 -13 73 -33 93
        -25 12 4 16 -2 19 -27 2 -17 11 -37 21 -43 15 -9 21 -6 37 14 10 14 24 44 31
        68 9 32 22 50 48 67 41 26 86 73 121 125 28 41 39 50 55 44 6 -3 18 2 25 11
        18 22 76 45 114 45 l31 0 -32 -31 c-24 -25 -34 -29 -48 -21 -18 10 -55 5 -55
        -7 0 -4 19 -11 43 -17 39 -8 42 -11 45 -47 2 -25 -4 -49 -17 -71 -29 -46 -42
        -55 -99 -70 -41 -11 -53 -11 -75 1 -15 7 -27 16 -27 19 0 2 14 -2 30 -11 17
        -9 30 -12 30 -8 0 10 -82 55 -88 48 -9 -9 42 -56 76 -70 44 -19 41 -40 -18
        -114 -39 -49 -50 -70 -50 -98 0 -37 -11 -82 -35 -139 -16 -37 -83 -74 -136
        -74 -29 -1 -31 -2 -16 -11 11 -6 30 -9 43 -6 35 6 30 -7 -18 -46 -52 -42 -108
        -61 -155 -54 -36 6 -83 32 -83 45 0 4 26 13 58 21 62 14 122 52 122 78 0 13
        -7 10 -29 -11 -18 -17 -50 -32 -90 -42 -57 -13 -65 -13 -92 3 -32 19 -37 38
        -14 47 18 6 20 58 4 88 -16 29 -29 6 -29 -53 l0 -45 -59 -18 c-52 -15 -63 -16
        -88 -4 -25 12 -28 18 -26 62 1 27 8 55 17 65 9 10 16 22 16 28 0 22 46 40 106
        40 60 1 62 0 78 -33 9 -19 16 -55 16 -79 0 -25 5 -45 10 -45 17 0 11 73 -11
        120 -11 24 -18 54 -15 66 5 19 12 22 48 19 24 -2 48 -4 54 -4 6 -1 29 -17 52
        -37 32 -27 44 -45 48 -75 4 -21 10 -39 15 -39 16 0 -4 65 -30 100 -15 19 -46
        44 -69 56 -22 12 -38 25 -34 29 4 5 -1 5 -11 2 -24 -9 -57 9 -57 31 0 10 11
        33 24 53 13 19 29 62 35 95 5 32 14 80 19 105 5 26 18 59 30 74 12 15 22 34
        22 41 0 8 6 14 14 14 8 0 27 11 43 24 40 33 103 66 103 53z m-905 -252 c32
        -22 60 -48 63 -57 2 -10 8 -15 13 -12 5 3 9 0 9 -5 0 -6 7 -11 15 -11 8 0 15
        -9 15 -20 0 -13 7 -20 19 -20 10 0 30 -10 45 -21 36 -29 42 -19 10 16 -28 31
        -28 30 38 65 80 43 162 36 292 -25 41 -19 82 -35 91 -35 20 0 19 -17 -1 -28
        -11 -6 -43 -4 -88 5 -39 8 -82 16 -96 18 -14 2 -41 6 -60 10 -44 8 -84 -7
        -106 -40 -13 -20 -14 -29 -5 -38 6 -6 11 -14 11 -18 0 -7 -6 -7 -95 10 -39 7
        -68 5 -133 -10 -101 -23 -126 -24 -147 -3 -16 17 -12 53 9 66 7 5 4 8 -6 8
        -13 0 -20 -11 -24 -40 -6 -39 -7 -40 -48 -40 -33 -1 -38 -3 -23 -11 12 -7 27
        -7 46 -1 21 8 30 6 37 -6 12 -18 60 -25 85 -11 29 15 149 21 212 11 45 -7 59
        -6 65 4 5 9 20 -3 49 -40 65 -85 68 -94 41 -116 -13 -11 -27 -19 -31 -20 -12
        0 -39 -69 -32 -81 4 -5 22 -7 41 -3 27 5 35 3 40 -11 12 -30 -32 -121 -94
        -196 -45 -54 -65 -84 -105 -159 -36 -67 -56 -91 -89 -111 -50 -31 -104 -59
        -114 -59 -6 0 0 43 13 98 3 12 1 22 -5 22 -8 0 -25 -73 -27 -115 0 -18 -24
        -26 -93 -31 l-67 -5 -35 75 c-19 41 -38 75 -42 76 -13 0 -9 -11 27 -78 20 -35
        34 -66 32 -68 -1 -2 -19 2 -40 8 -26 8 -39 19 -46 40 -11 31 -26 39 -16 8 9
        -29 -6 -25 -56 18 -55 47 -80 73 -121 128 -18 25 -58 76 -89 115 -90 112 -114
        168 -114 263 0 54 5 81 13 84 7 2 12 10 12 17 0 7 16 44 35 81 39 74 41 82 21
        65 -11 -9 -28 -7 -75 9 -33 11 -67 20 -75 20 -8 0 -61 -16 -119 -35 -121 -40
        -152 -42 -232 -15 -78 27 -189 38 -183 19 3 -9 26 -16 59 -20 92 -10 109 -23
        159 -124 50 -99 77 -124 163 -150 28 -8 83 -15 123 -15 72 0 72 0 83 -32 6
        -17 9 -33 6 -36 -2 -3 -51 -5 -107 -6 -89 -1 -109 2 -146 22 -56 30 -116 85
        -155 141 -51 76 -117 139 -176 173 -31 17 -63 37 -71 44 -8 7 -34 17 -58 24
        -26 7 -42 16 -39 23 3 7 8 11 13 11 309 -48 431 -41 568 32 65 36 167 44 231
        20 52 -20 61 -31 44 -52 -6 -8 -10 -17 -7 -20 5 -5 68 53 68 62 0 10 68 74 79
        74 6 0 11 7 11 16 0 14 2 14 16 3 14 -11 15 -10 12 6 -2 14 10 24 56 42 33 14
        70 23 83 20 13 -2 23 -1 23 2 0 4 15 5 34 3 19 -2 43 1 53 7 10 7 47 10 84 9
        58 -3 73 -8 124 -43z m144 -8 c-2 -1 -13 -9 -24 -17 -19 -14 -19 -14 -6 3 7 9
        18 17 24 17 6 0 8 -1 6 -3z m-709 -67 c0 -18 -3 -19 -20 -8 -14 9 -16 14 -7
        20 20 13 27 9 27 -12z m-40 -51 c0 -6 -4 -7 -10 -4 -5 3 -10 11 -10 16 0 6 5
        7 10 4 6 -3 10 -11 10 -16z m1087 -35 c59 -9 109 -17 111 -18 4 -4 -15 -97
        -21 -103 -4 -3 -31 -7 -61 -8 -55 -3 -116 -33 -116 -58 -1 -18 -50 45 -50 64
        0 8 -13 25 -30 37 -16 13 -30 29 -30 37 0 19 9 19 30 0 16 -15 18 -14 18 9 0
        22 -4 24 -29 19 -30 -6 -37 5 -17 25 16 16 66 15 195 -4z m-140 -145 c7 -18 9
        -28 5 -23 -4 5 -26 31 -48 59 l-39 50 35 -27 c19 -15 41 -41 47 -59z m-1624
        64 c-7 -2 -19 -2 -25 0 -7 3 -2 5 12 5 14 0 19 -2 13 -5z m542 -8 c33 -9 61
        -17 63 -19 10 -10 -50 -86 -68 -86 -32 0 -51 -38 -44 -91 4 -29 2 -55 -6 -69
        -11 -21 -17 -22 -70 -17 -73 8 -160 40 -187 70 -12 12 -31 47 -44 77 -12 30
        -33 69 -45 86 l-23 31 39 -13 c64 -22 120 -19 190 8 91 36 93 36 115 37 12 1
        47 -6 80 -14z m1381 0 c18 -13 18 -14 -4 -8 -12 3 -25 9 -28 14 -8 14 10 11
        32 -6z m-266 -110 c7 -9 8 -15 2 -15 -5 0 -12 7 -16 15 -3 8 -4 15 -2 15 2 0
        9 -7 16 -15z m-1109 -33 c-5 -10 -13 -46 -17 -80 -8 -79 -20 -72 -22 12 0 52
        3 68 16 76 26 15 34 12 23 -8z m1105 -18 c-3 -9 -6 -27 -6 -40 0 -21 -5 -24
        -35 -24 -45 0 -46 20 -2 54 37 30 52 33 43 10z m214 -31 c0 -32 -5 -28 -14 10
        -4 19 -3 26 4 22 5 -3 10 -18 10 -32z m394 -163 c19 -41 21 -61 21 -240 -1
        -159 -5 -215 -23 -305 -59 -297 -134 -448 -233 -470 -46 -10 -96 3 -118 31
        -31 40 -81 210 -97 334 -18 138 -22 153 -23 80 -1 -73 22 -210 48 -289 27 -78
        21 -91 -7 -19 -25 63 -49 200 -56 318 -9 163 -19 260 -27 260 -5 0 -6 -12 -4
        -27 3 -16 9 -100 15 -188 6 -88 15 -178 20 -200 5 -22 10 -53 10 -69 0 -38 60
        -167 73 -159 6 3 7 1 3 -5 -4 -6 0 -22 9 -36 13 -19 13 -26 4 -32 -7 -4 -15
        -2 -17 4 -2 7 -13 12 -25 12 -26 0 -51 52 -67 139 -5 29 -14 70 -19 90 -6 20
        -18 111 -27 204 -10 92 -21 167 -26 167 -5 0 -6 -10 -4 -22 3 -13 10 -81 16
        -153 6 -71 20 -169 31 -217 10 -48 19 -93 19 -100 0 -8 9 -30 19 -51 26 -50
        12 -47 -21 6 -28 44 -55 152 -88 352 -22 132 -32 167 -48 173 -8 2 -8 -6 2
        -30 14 -33 40 -217 33 -225 -3 -2 -15 40 -29 93 -13 54 -28 99 -33 100 -6 2
        -18 -14 -27 -35 -21 -44 -23 -60 -6 -43 20 20 28 14 49 -35 11 -27 27 -61 35
        -77 17 -35 17 -39 2 -30 -8 5 -9 2 -4 -12 10 -24 34 -160 38 -206 1 -19 -1
        -39 -5 -45 -4 -6 -3 -14 2 -17 18 -11 72 -119 64 -126 -13 -12 -133 -48 -213
        -64 -138 -26 -150 -27 -150 -16 0 11 -29 10 -157 -6 l-42 -5 19 70 c11 39 20
        79 20 90 0 11 9 21 23 25 22 5 23 10 19 59 -3 45 1 65 31 133 20 43 57 129 82
        189 26 61 53 119 60 130 7 12 33 73 58 136 25 64 59 143 76 177 17 34 27 62
        23 62 -8 0 -81 -147 -96 -192 -3 -10 -10 -18 -17 -18 -6 0 -9 -7 -5 -15 6 -16
        -22 -85 -39 -97 -7 -5 -7 -8 0 -8 6 0 6 -3 -1 -8 -16 -11 -125 -262 -118 -273
        3 -5 0 -8 -6 -7 -7 2 -22 -25 -34 -61 l-22 -64 -13 57 c-8 35 -9 62 -3 69 5 7
        28 62 52 122 24 61 66 153 94 205 28 52 51 104 51 115 0 11 5 20 12 20 7 0 23
        22 38 48 14 27 39 66 56 87 27 33 36 38 60 33 16 -3 35 0 44 7 41 34 48 -51 9
        -124 -14 -26 -23 -50 -20 -54 3 -3 7 -3 9 -1 28 48 48 96 52 130 6 51 50 145
        72 153 11 5 13 2 8 -11 -4 -10 -10 -53 -13 -95 -3 -58 -1 -78 8 -78 7 0 10 7
        6 15 -8 23 13 164 30 196 36 71 64 41 71 -77 3 -49 9 -93 13 -99 5 -5 7 -34 7
        -63 -1 -28 0 -52 3 -52 3 0 5 -30 5 -67 1 -249 17 -427 46 -523 19 -62 60
        -120 85 -120 23 0 62 51 84 110 17 45 26 57 38 53 9 -4 13 -2 9 4 -4 6 -4 13
        0 16 5 2 2 2 -4 1 -15 -4 -17 8 -4 21 4 6 13 55 19 111 11 100 33 174 52 174
        6 0 10 5 10 11 0 6 -7 9 -15 5 -9 -3 -15 0 -15 9 0 8 3 15 8 15 4 0 7 14 7 30
        1 17 -2 30 -5 30 -3 0 -2 39 1 87 4 48 5 112 4 142 -2 31 -5 84 -7 118 -2 35
        -6 63 -10 63 -10 0 -10 34 -1 44 10 9 30 -17 57 -74z m-547 55 c12 -3 32 -1
        43 5 39 21 36 -1 -6 -38 -22 -20 -46 -49 -52 -64 -8 -20 -19 -28 -36 -28 -14
        0 -28 -4 -31 -10 -7 -12 -45 -13 -45 -2 0 5 13 26 30 48 16 21 32 54 36 72 5
        24 11 31 23 28 9 -2 26 -7 38 -11z m452 -57 c-39 -30 -89 -48 -133 -47 l-41 1
        50 12 c58 14 106 38 125 61 10 13 15 14 18 5 3 -7 -6 -21 -19 -32z m-193 -36
        c-18 -4 -66 16 -66 27 0 5 18 2 40 -7 22 -9 34 -18 26 -20z m200 -36 c-14 -25
        -60 -75 -102 -113 -84 -75 -87 -77 -128 -87 -26 -7 -28 -5 -24 18 3 15 2 26
        -1 26 -3 0 -6 12 -7 28 0 15 -4 53 -7 85 -5 53 -4 58 11 50 9 -4 51 -8 93 -7
        66 0 83 5 130 31 30 17 56 27 57 22 2 -5 -8 -29 -22 -53z m-156 12 c17 -5 8
        -6 -29 -3 -30 2 -59 9 -64 14 -11 11 49 4 93 -11z m186 -180 c-7 -174 -13
        -228 -41 -393 -20 -110 -21 -116 -27 -135 -36 -102 -53 -139 -70 -157 -25 -27
        -37 -28 -64 -8 -19 14 -19 14 1 9 22 -5 53 11 42 22 -3 4 -13 2 -20 -5 -11 -9
        -19 -3 -40 26 -38 55 -47 113 -57 348 -9 229 -10 227 48 242 25 6 222 196 222
        213 0 5 3 10 7 10 3 0 3 -78 -1 -172z m-1486 -9 c0 -5 5 -7 10 -4 6 3 10 1 10
        -4 0 -6 31 -44 70 -85 93 -98 160 -129 275 -129 87 0 183 29 258 79 49 32 48
        16 -3 -24 -53 -43 -142 -66 -260 -66 -106 -1 -152 15 -233 83 l-42 35 33 -36
        c57 -61 122 -90 216 -95 96 -6 227 17 269 47 15 12 27 17 27 12 0 -4 -23 -48
        -51 -97 -28 -49 -54 -96 -57 -105 -14 -37 -56 -91 -68 -86 -7 3 -16 1 -19 -4
        -3 -4 0 -10 6 -12 7 -2 10 -10 7 -18 -2 -8 -11 -3 -24 17 -22 36 -202 208
        -210 201 -2 -3 31 -39 74 -80 76 -72 132 -137 132 -152 0 -4 -4 -5 -9 -1 -5 3
        -17 -5 -26 -17 l-16 -23 -41 45 c-75 82 -210 220 -215 220 -3 0 1 -8 8 -17 7
        -10 -1 -5 -19 11 -18 17 -32 26 -32 21 0 -5 69 -77 153 -161 87 -86 154 -161
        154 -171 -1 -84 5 -121 21 -139 10 -11 17 -25 14 -32 -4 -12 -36 25 -100 113
        -29 39 -37 45 -70 45 -20 0 -52 -4 -71 -10 -42 -12 -91 10 -91 41 0 28 -41
        105 -94 175 -45 60 -91 108 -70 74 5 -9 28 -40 51 -70 49 -65 87 -134 97 -173
        11 -47 -13 -21 -44 47 -29 66 -103 166 -122 166 -7 0 -6 -5 4 -12 30 -25 138
        -198 122 -198 -2 0 -25 15 -51 34 -48 33 -137 54 -149 35 -3 -5 8 -9 24 -9 32
        0 162 -61 182 -85 19 -23 5 -29 -16 -7 -18 18 -24 18 -79 7 -33 -7 -63 -11
        -67 -9 -9 5 -59 -29 -127 -86 -43 -36 -101 -119 -101 -144 0 -3 21 17 46 44
        25 27 43 53 40 59 -4 5 -1 13 5 17 8 4 9 3 5 -4 -4 -7 -3 -12 2 -12 6 0 12 6
        15 13 3 7 29 32 59 55 61 47 158 76 181 53 8 -8 7 -11 -6 -11 -10 0 -39 -11
        -65 -24 -57 -30 -121 -76 -103 -76 7 0 27 11 45 25 66 50 214 92 231 65 3 -5
        -2 -10 -12 -10 -38 0 -122 -52 -177 -110 -67 -70 -101 -139 -116 -236 -10 -62
        -9 -82 9 -157 12 -46 21 -90 21 -97 0 -6 23 -68 51 -136 73 -177 148 -256 212
        -223 26 14 48 42 64 84 7 19 12 23 12 12 1 -25 -22 -67 -52 -96 -22 -19 -32
        -22 -63 -17 -84 16 -148 78 -202 196 -44 97 -59 163 -68 305 -11 180 19 269
        127 378 73 73 78 89 10 31 -58 -50 -118 -142 -137 -211 -38 -133 -8 -385 60
        -522 20 -39 33 -71 30 -71 -18 0 -107 66 -144 106 -49 54 -73 103 -105 222
        -13 48 -38 127 -56 177 -29 81 -31 100 -31 205 0 182 44 316 161 495 40 61
        265 305 282 305 3 0 19 -25 35 -56 30 -57 51 -83 69 -83 6 0 16 -10 24 -23 12
        -21 12 -21 -8 2 -11 14 -21 21 -21 16 0 -5 28 -39 63 -75 34 -37 106 -115 161
        -174 54 -59 101 -106 104 -103 2 3 -41 53 -96 112 -56 59 -99 111 -96 115 3 5
        -9 22 -26 39 -17 16 -29 30 -27 30 3 0 30 -12 61 -26 32 -14 60 -23 63 -20 3
        3 -3 9 -13 12 -70 25 -141 67 -159 94 -11 17 -19 35 -18 39 1 5 -9 19 -22 31
        l-24 23 4 -23 c2 -12 10 -29 17 -39 8 -10 5 -9 -10 3 -12 11 -20 26 -18 33 3
        7 1 15 -5 19 -5 3 -7 15 -3 26 4 13 2 18 -4 14 -5 -3 -17 5 -26 19 -9 14 -12
        25 -6 25 5 0 10 -5 10 -11z m220 -416 c0 -8 -9 0 -50 45 l-45 47 48 -45 c26
        -24 47 -45 47 -47z m288 -50 c-24 -55 -26 -58 -33 -51 -4 3 4 23 16 44 29 53
        30 54 34 54 2 0 -5 -21 -17 -47z m1 -100 c7 -26 7 -39 0 -44 -11 -7 -3 -49 9
        -49 4 0 8 -18 8 -40 2 -44 -6 -49 -32 -22 -16 15 -17 15 -12 0 5 -13 -1 -18
        -33 -23 -44 -8 -59 -1 -41 17 14 14 16 32 3 23 -26 -15 -27 122 -1 142 13 11
        13 13 0 14 -18 2 36 16 67 18 17 1 24 -7 32 -36z m-229 -92 c0 -5 24 -42 54
        -81 72 -94 76 -117 37 -177 -17 -25 -31 -52 -31 -60 0 -7 -22 -24 -48 -37 -47
        -24 -48 -24 -60 -5 -10 16 -9 19 7 19 23 0 121 86 121 106 0 8 -17 -4 -37 -27
        -20 -22 -53 -49 -73 -59 l-36 -18 -39 42 c-26 29 -45 42 -57 38 -23 -6 -24
        -22 -1 -22 28 0 93 -70 93 -101 0 -38 -17 -79 -33 -79 -7 0 -28 -11 -46 -24
        -17 -13 -40 -22 -50 -19 -10 3 -22 0 -25 -6 -5 -7 0 -9 11 -5 14 5 15 4 4 -4
        -18 -13 -100 26 -139 65 l-25 25 42 42 c51 52 55 73 5 25 l-37 -34 24 44 c23
        42 73 94 101 103 7 3 10 9 6 13 -19 21 -119 -90 -134 -148 -8 -34 -30 -34 -68
        -1 -26 23 -28 30 -23 73 6 48 44 141 59 141 4 0 5 -7 1 -16 -4 -12 -2 -15 8
        -12 8 3 13 14 11 26 -2 12 2 22 7 22 6 0 11 6 11 14 0 14 50 63 97 93 14 10
        67 25 117 34 106 20 146 23 146 10z m730 -37 c0 -8 5 -14 11 -14 6 0 8 -7 5
        -16 -3 -8 -2 -13 3 -10 4 3 16 -3 26 -14 10 -11 15 -20 11 -20 -4 0 -2 -9 4
        -19 8 -16 7 -20 -9 -18 -12 1 -17 6 -13 16 3 9 1 12 -6 7 -7 -4 -19 10 -32 36
        -21 44 -27 83 -10 73 6 -3 10 -13 10 -21z m-1220 12 c0 -2 -8 -10 -17 -17 -16
        -13 -17 -12 -4 4 13 16 21 21 21 13z m-70 -69 c0 -2 -10 -12 -21 -23 -22 -19
        -22 -19 -8 4 12 19 29 30 29 19z m770 -29 c0 -7 -3 -24 -7 -38 l-7 -25 -8 30
        c-5 21 -6 15 -3 -20 3 -30 1 -45 -4 -37 -6 10 -10 8 -14 -10 -10 -36 -7 -57 4
        -33 8 17 8 16 4 -7 -3 -15 -1 -29 5 -33 5 -3 46 -1 92 5 48 6 86 6 91 1 11
        -11 18 -114 8 -129 -9 -15 -84 -31 -143 -32 -27 0 -48 -4 -48 -10 0 -5 6 -10
        13 -10 7 0 25 -35 41 -77 27 -72 57 -127 43 -78 -3 11 -14 48 -25 83 -10 34
        -21 60 -25 56 -4 -4 -7 -3 -7 3 0 6 21 13 46 17 69 9 124 28 124 41 0 7 22 15
        55 19 64 7 263 66 357 106 l67 28 30 -47 c36 -56 57 -112 66 -178 13 -88 61
        -170 152 -261 45 -46 86 -95 89 -109 4 -13 4 -47 1 -75 -5 -43 -2 -59 23 -109
        44 -87 36 -153 -24 -193 -34 -21 -40 -20 -56 9 -14 26 -77 71 -86 62 -6 -6
        -66 9 -109 28 -16 7 -50 18 -74 23 -38 9 -50 8 -82 -9 -85 -43 -127 -97 -163
        -204 -18 -56 -42 -76 -120 -99 -38 -12 -48 -12 -64 0 -11 7 -23 10 -27 6 -5
        -4 -5 -2 -2 4 4 6 -2 19 -13 29 -26 23 -121 220 -176 365 -66 171 -121 391
        -127 507 -3 63 8 84 32 60 21 -21 36 11 38 81 0 37 -3 74 -9 82 -7 12 -8 10
        -5 -7 3 -13 2 -25 -3 -28 -4 -3 -10 8 -12 25 -2 16 -1 27 4 24 12 -8 10 10 -3
        23 -14 14 -18 101 -5 131 6 15 18 22 38 22 16 0 28 -5 28 -12z m623 -11 c4 3
        7 2 7 -4 0 -19 -13 -22 -26 -5 -7 9 -13 22 -13 27 0 6 6 2 13 -7 7 -10 16 -15
        19 -11z m-42 -46 c7 11 9 11 9 -3 0 -16 -65 -46 -76 -35 -3 2 7 7 21 11 14 4
        25 14 26 24 0 12 2 13 6 3 5 -11 7 -11 14 0z m39 -1 c0 -5 -5 -10 -11 -10 -5
        0 -7 5 -4 10 3 6 8 10 11 10 2 0 4 -4 4 -10z m-40 -45 c0 -3 -21 -10 -47 -17
        -26 -6 -43 -13 -37 -15 5 -2 32 3 59 12 38 11 51 12 57 2 6 -9 8 -9 8 1 0 6 5
        12 10 12 6 0 10 -6 10 -13 0 -12 -84 -53 -175 -86 -54 -19 -248 -71 -267 -71
        -35 0 -17 18 25 24 47 8 261 70 320 93 71 29 30 24 -64 -7 -105 -35 -224 -61
        -272 -59 -30 1 -29 2 13 15 l45 13 -42 -5 c-38 -5 -43 -4 -43 15 0 15 9 22 35
        27 19 3 41 4 49 1 7 -3 20 0 27 6 8 8 8 5 -1 -7 -14 -17 -13 -18 5 -13 11 3
        34 9 50 13 l30 8 -25 8 c-20 6 -18 7 10 3 20 -2 69 6 115 19 84 25 105 29 105
        21z m-654 -129 c-8 -73 -14 -84 -47 -101 -35 -19 -66 -19 -76 -1 -4 8 -19 16
        -33 18 l-25 4 28 12 c58 24 77 26 77 5 0 -10 -5 -24 -12 -31 -7 -7 -8 -12 -2
        -12 14 0 38 46 30 58 -3 5 0 15 7 20 7 6 19 27 27 47 21 53 34 43 26 -19z
        m297 -13 c-7 -2 -19 -2 -25 0 -7 3 -2 5 12 5 14 0 19 -2 13 -5z m-779 -111
        c20 -18 34 -37 31 -42 -10 -16 22 -74 62 -111 21 -20 57 -73 81 -118 l44 -81
        -18 -46 c-32 -83 -90 -98 -145 -37 -73 84 -170 339 -182 479 l-4 51 47 -31
        c26 -17 63 -46 84 -64z m509 60 c-3 -18 -10 -31 -17 -29 -13 5 -9 36 6 55 15
        17 16 13 11 -26z m-168 -42 c3 -5 -1 -10 -9 -10 -9 0 -16 5 -16 10 0 6 4 10 9
        10 6 0 13 -4 16 -10z m-35 -27 c0 -22 -2 -25 -10 -13 -13 20 -13 40 0 40 6 0
        10 -12 10 -27z m-25 -24 c4 -17 2 -43 -5 -58 -10 -25 -7 -36 24 -98 20 -39 36
        -80 36 -91 0 -27 20 -72 32 -72 5 0 6 -5 3 -10 -8 -13 33 -101 78 -167 24 -35
        37 -69 42 -105 6 -46 38 -135 92 -258 9 -19 35 -91 59 -160 44 -128 45 -150 4
        -150 -26 0 -54 39 -90 128 -17 42 -47 111 -65 152 -19 41 -42 100 -51 130 -8
        30 -20 64 -24 75 -5 11 -12 46 -15 77 -7 60 -18 74 -113 148 -17 14 -32 28
        -32 31 0 4 19 3 43 -1 23 -5 44 -6 47 -4 8 8 -24 24 -45 23 -39 -2 -45 1 -45
        26 0 15 -7 39 -15 55 -15 28 -14 30 5 30 11 0 20 5 20 11 0 6 -8 8 -19 4 -10
        -3 -23 0 -29 7 -11 14 -82 138 -82 144 0 2 9 4 20 4 11 0 20 5 20 10 0 12 -10
        13 -30 1 -10 -7 -24 0 -52 27 -21 20 -38 40 -38 43 0 4 17 2 39 -3 34 -9 44
        -6 95 23 32 17 60 38 63 45 9 23 21 16 28 -17z m92 0 c2 -13 10 -67 18 -121
        14 -99 73 -305 106 -370 10 -20 15 -39 11 -42 -14 -8 -81 103 -101 168 -17 55
        -45 122 -87 212 -8 17 -13 44 -10 60 2 16 5 48 5 71 1 31 6 43 19 46 27 7 35
        3 39 -24z m58 21 c-13 -21 38 -269 85 -409 43 -130 68 -193 142 -361 34 -76
        100 -180 114 -180 7 0 16 -5 20 -12 13 -20 -67 -1 -92 23 -12 11 -33 47 -45
        78 -12 31 -39 92 -59 136 -21 44 -48 114 -60 155 -12 41 -35 104 -50 140 -58
        136 -114 415 -87 432 17 11 39 10 32 -2z m-528 -382 c21 -12 58 -39 83 -59
        106 -87 196 -91 230 -9 14 34 33 41 28 10 -2 -13 16 -37 59 -77 54 -50 64 -65
        73 -108 6 -27 26 -97 45 -153 l34 -104 -27 6 c-15 4 -49 18 -77 31 -195 92
        -189 88 -217 140 -40 75 -76 102 -144 111 -32 4 -73 13 -91 20 -40 17 -64 18
        -86 1 -15 -10 -11 -12 30 -13 78 -1 204 -32 231 -57 13 -12 35 -43 48 -69 13
        -26 34 -54 46 -62 15 -11 18 -16 8 -17 -8 0 -4 -4 8 -10 13 -5 28 -7 32 -4 11
        7 40 -5 40 -16 0 -5 -4 -9 -10 -9 -5 0 -26 -11 -46 -25 -20 -14 -40 -25 -44
        -25 -4 0 -26 18 -50 40 -49 46 -72 49 -165 24 -58 -15 -77 -15 -221 2 -40 5
        -62 2 -99 -15 -26 -11 -58 -21 -71 -21 -20 0 -24 5 -24 30 0 85 65 150 185
        186 75 22 83 22 130 9 125 -36 160 -45 173 -45 32 0 -2 15 -81 36 -45 12 -96
        27 -114 32 -17 6 -34 8 -37 4 -3 -3 -6 0 -6 6 0 7 14 27 31 45 29 30 31 36 26
        85 -5 51 7 102 24 102 4 0 25 -10 46 -22z m636 -267 c1 -13 -2 -26 -8 -27 -6
        -2 -11 22 -12 59 -1 57 -1 59 9 27 5 -19 10 -46 11 -59z m737 -14 c24 -10 24
        -11 3 -14 -12 -2 -27 -11 -33 -19 -13 -15 0 -20 16 -5 11 10 64 24 64 16 0 -3
        -16 -20 -35 -37 -20 -17 -33 -33 -30 -36 3 -3 21 9 40 28 32 31 37 33 87 27
        44 -5 58 -12 81 -39 16 -20 25 -41 22 -53 -2 -10 3 -27 12 -37 22 -24 12 -98
        -18 -143 -31 -45 -40 -44 -23 3 16 45 18 82 4 82 -5 0 -10 -19 -10 -43 0 -24
        -3 -46 -6 -50 -9 -9 -62 56 -79 97 -17 41 -20 70 -5 61 6 -3 10 -15 10 -26 0
        -10 5 -19 11 -19 6 0 9 6 6 13 -19 51 -18 56 8 63 14 3 40 4 58 0 30 -5 31 -5
        12 10 -45 35 -144 -18 -130 -69 4 -12 8 -29 11 -37 3 -12 -3 -16 -23 -15 -22
        0 -28 6 -33 31 -10 45 -41 93 -64 96 -13 2 -23 14 -28 36 -6 21 -17 36 -34 42
        -43 17 -61 11 -25 -8 50 -24 48 -37 -4 -37 -57 0 -93 -33 -100 -91 l-5 -39 11
        35 c20 66 73 101 121 79 60 -27 80 -43 99 -81 11 -22 19 -42 17 -44 -3 -2 -20
        12 -38 31 -38 39 -57 42 -102 19 -28 -15 -30 -18 -24 -57 3 -23 9 -52 12 -64
        5 -20 3 -23 -20 -23 -40 0 -84 26 -101 60 -14 28 -14 35 7 96 39 113 125 190
        198 177 19 -3 46 -10 60 -16z m-1479 -180 l57 -11 -20 -27 c-11 -14 -22 -45
        -25 -68 -5 -39 -28 -65 -58 -66 -5 0 -20 -19 -33 -42 -20 -37 -26 -41 -43 -33
        -48 26 -69 118 -37 161 26 35 50 44 78 29 l21 -11 -21 -26 c-11 -14 -20 -35
        -20 -47 0 -15 6 -8 21 22 25 51 42 54 38 8 -2 -19 0 -38 4 -42 4 -4 7 0 7 9 0
        8 3 22 6 31 9 24 -48 76 -84 76 -23 0 -36 -9 -58 -37 -15 -21 -29 -40 -32 -43
        -2 -3 -10 4 -18 14 -20 28 -18 75 4 82 9 3 26 10 37 16 30 17 77 27 100 22 11
        -3 45 -10 76 -17z m277 -9 c14 -13 22 -17 17 -9 -5 9 2 7 18 -5 34 -24 39 -68
        16 -126 -12 -29 -36 -40 -25 -12 3 8 -1 28 -9 44 -17 33 -95 83 -121 78 -26
        -5 -66 -88 -60 -125 4 -27 1 -33 -14 -33 -10 0 -30 14 -45 32 -31 37 -29 71 8
        125 25 38 59 51 136 52 44 1 60 -4 79 -21z m1171 -25 c36 -43 39 -78 14 -140
        -22 -53 -33 -55 -33 -5 0 47 -10 82 -22 82 -6 0 -7 -8 -3 -17 4 -10 9 -34 12
        -53 l6 -35 -36 34 c-30 28 -36 42 -42 93 -8 67 -1 78 47 78 19 0 36 -11 57
        -37z m-1174 -76 c19 -27 19 -62 0 -84 -8 -10 -28 -34 -44 -53 l-29 -35 -28 21
        c-57 42 -57 165 0 206 13 9 83 -30 101 -55z"/>
        <path d="M2275 3350 c-3 -5 -1 -10 4 -10 6 0 11 5 11 10 0 6 -2 10 -4 10 -3 0
        -8 -4 -11 -10z"/>
        <path d="M2483 3227 c2 -6 18 -14 35 -18 18 -4 38 -12 46 -19 8 -6 24 -9 36
        -5 24 8 27 25 3 19 -10 -3 -42 4 -71 15 -33 12 -52 15 -49 8z"/>
        <path d="M2270 3222 c0 -11 61 -22 97 -16 65 10 52 19 -27 19 -39 0 -70 -1
        -70 -3z"/>
        <path d="M2300 3160 c0 -5 7 -10 16 -10 8 0 12 5 9 10 -3 6 -10 10 -16 10 -5
        0 -9 -4 -9 -10z"/>
        <path d="M2471 3099 c-27 -29 -19 -37 9 -9 12 12 19 24 17 26 -3 3 -14 -5 -26
        -17z"/>
        <path d="M2400 2960 c0 -5 5 -10 10 -10 6 0 10 5 10 10 0 6 -4 10 -10 10 -5 0
        -10 -4 -10 -10z"/>
        <path d="M1355 3370 c-3 -5 1 -10 9 -10 9 0 16 5 16 10 0 6 -4 10 -9 10 -6 0
        -13 -4 -16 -10z"/>
        <path d="M1505 3360 c11 -5 31 -9 45 -9 23 0 23 1 5 9 -11 5 -31 9 -45 9 -23
        0 -23 -1 -5 -9z"/>
        <path d="M1580 3360 c0 -13 11 -13 30 0 12 8 11 10 -7 10 -13 0 -23 -4 -23
        -10z"/>
        <path d="M1173 3353 c-64 -9 -32 -18 62 -18 57 0 90 4 85 9 -11 11 -99 16
        -147 9z"/>
        <path d="M1435 3350 c-3 -5 -1 -10 4 -10 6 0 11 5 11 10 0 6 -2 10 -4 10 -3 0
        -8 -4 -11 -10z"/>
        <path d="M1420 3322 c0 -5 -13 -7 -29 -4 -16 2 -32 -1 -35 -7 -8 -12 41 -15
        68 -5 18 7 22 24 6 24 -5 0 -10 -4 -10 -8z"/>
        <path d="M1538 3303 c-16 -2 -28 -9 -28 -14 0 -11 7 -11 46 0 17 5 50 5 73 1
        22 -4 41 -4 41 0 0 16 -69 22 -132 13z"/>
        <path d="M1092 3261 c-18 -5 -35 -10 -37 -13 -2 -2 53 -2 122 -1 70 2 129 5
        131 8 3 3 -15 5 -39 5 -24 0 -66 2 -94 5 -27 2 -65 0 -83 -4z"/>
        <path d="M1380 3247 c-17 -14 -25 -57 -10 -57 6 0 10 11 10 24 0 15 7 26 18
        28 9 2 12 6 7 10 -6 3 -17 1 -25 -5z"/>
        <path d="M1330 3185 c-29 -35 -69 -46 -169 -47 -54 0 -108 3 -120 7 -25 8 -97
        -3 -87 -12 3 -4 -1 -14 -10 -24 -15 -17 -13 -17 32 -11 27 4 99 7 159 6 61 0
        112 2 115 5 3 3 29 17 57 31 56 27 57 28 44 48 -6 10 -11 10 -21 -3z"/>
        <path d="M1580 3136 c11 -11 157 -13 194 -3 26 7 28 6 17 -7 -8 -9 -9 -16 -3
        -16 5 0 15 7 22 15 15 18 26 16 -127 18 -62 1 -108 -2 -103 -7z"/>
        <path d="M1335 3129 c-27 -14 -139 -173 -170 -241 -26 -58 -47 -143 -36 -153
        3 -4 6 -12 6 -18 0 -19 18 -19 21 -1 7 45 109 117 201 141 136 35 232 15 328
        -69 25 -22 45 -35 45 -30 0 14 -62 66 -117 99 -44 26 -56 28 -152 28 l-103 0
        6 43 c4 27 2 42 -5 42 -7 0 -10 -19 -7 -50 2 -37 0 -50 -11 -50 -28 0 -134
        -65 -167 -104 -28 -33 -34 -36 -34 -19 0 47 43 155 89 224 71 105 71 105 114
        104 20 -1 37 3 37 8 0 5 -13 7 -30 5 -37 -6 -39 9 -4 22 59 23 169 5 158 -25
        -4 -11 -2 -13 9 -10 19 8 151 -134 175 -189 10 -23 26 -57 36 -76 16 -34 16
        -34 11 -5 -13 65 -59 137 -149 232 l-93 97 -69 3 c-38 1 -78 -2 -89 -8z"/>
        <path d="M1547 3123 c-13 -13 -6 -23 32 -47 85 -54 176 -51 246 9 33 29 31 29
        -38 -4 -79 -37 -105 -37 -175 -2 -34 17 -62 34 -62 36 0 3 9 1 19 -5 29 -15
        38 -12 15 5 -22 16 -28 18 -37 8z"/>
        <path d="M1140 3090 c-8 -5 -51 -10 -95 -11 -69 -1 -74 -2 -40 -9 48 -10 120
        -2 155 16 14 7 19 13 10 13 -8 1 -22 -4 -30 -9z"/>
        <path d="M1443 3093 c-7 -2 -13 -8 -13 -12 0 -11 34 -7 38 4 4 11 -8 15 -25 8z"/>
        <path d="M1640 3089 c0 -5 5 -7 10 -4 6 3 10 8 10 11 0 2 -4 4 -10 4 -5 0 -10
        -5 -10 -11z"/>
        <path d="M1222 3060 c-27 -35 -115 -80 -156 -80 -33 0 -96 33 -96 50 0 5 -5
        10 -10 10 -18 0 7 -37 42 -61 39 -28 81 -28 137 0 64 33 147 113 114 110 -5 0
        -18 -13 -31 -29z"/>
        <path d="M1195 3070 c-16 -7 -17 -9 -3 -9 9 -1 20 4 23 9 7 11 7 11 -20 0z"/>
        <path d="M1542 3004 c9 -11 29 -46 44 -79 15 -33 29 -54 31 -48 6 17 -59 136
        -77 141 -12 4 -12 1 2 -14z"/>
        <path d="M1458 2958 c5 -55 8 -65 17 -56 8 8 -6 108 -15 108 -4 0 -5 -24 -2
        -52z"/>
        <path d="M1246 2929 c-19 -47 -30 -113 -18 -105 6 3 13 25 17 49 4 23 12 50
        17 60 5 10 7 21 4 24 -3 4 -12 -9 -20 -28z"/>
        <path d="M1410 2773 c0 -93 8 -90 19 6 6 56 4 71 -6 71 -10 0 -13 -20 -13 -77z"/>
        <path d="M1740 2735 c0 -8 5 -15 11 -15 5 0 7 -4 4 -10 -3 -5 -1 -10 5 -10 7
        0 9 7 6 16 -3 9 -6 20 -6 25 0 5 -4 9 -10 9 -5 0 -10 -7 -10 -15z"/>
        <path d="M1528 2683 c-22 -45 -28 -49 -82 -62 -71 -17 -93 -8 -136 50 -23 32
        -30 37 -30 22 0 -11 7 -26 15 -33 29 -24 14 -29 -30 -10 -25 11 -45 15 -45 11
        0 -11 74 -41 100 -41 10 0 21 -4 24 -9 15 -24 158 -19 175 7 3 5 20 13 37 16
        36 8 129 64 121 73 -3 3 -19 -4 -36 -16 -30 -22 -101 -55 -101 -47 0 2 7 20
        15 39 17 42 18 47 6 47 -4 0 -19 -21 -33 -47z"/>
        <path d="M1110 2686 c0 -8 5 -18 10 -21 6 -3 10 3 10 14 0 12 -4 21 -10 21 -5
        0 -10 -6 -10 -14z"/>
        <path d="M1722 2655 c-14 -30 -16 -54 -4 -39 15 17 32 64 23 64 -4 0 -13 -11
        -19 -25z"/>
        <path d="M1030 2663 c0 -11 44 -73 53 -73 4 0 -5 18 -19 40 -26 39 -34 47 -34
        33z"/>
        <path d="M1585 2590 c3 -5 8 -10 11 -10 2 0 4 5 4 10 0 6 -5 10 -11 10 -5 0
        -7 -4 -4 -10z"/>
        <path d="M1270 2570 c0 -5 5 -10 10 -10 6 0 10 5 10 10 0 6 -4 10 -10 10 -5 0
        -10 -4 -10 -10z"/>
        <path d="M1550 2550 c0 -5 5 -10 10 -10 6 0 10 5 10 10 0 6 -4 10 -10 10 -5 0
        -10 -4 -10 -10z"/>
        <path d="M1615 2455 c-9 -20 -14 -39 -11 -42 3 -3 12 12 21 32 8 21 13 40 10
        43 -2 3 -12 -12 -20 -33z"/>
        <path d="M1200 2469 c0 -5 5 -7 10 -4 6 3 10 8 10 11 0 2 -4 4 -10 4 -5 0 -10
        -5 -10 -11z"/>
        <path d="M2058 2559 c-19 -11 -25 -49 -8 -49 5 0 7 8 3 18 -3 9 -2 14 2 9 5
        -4 14 -42 21 -85 l13 -77 -2 75 c-1 41 -6 79 -12 83 -6 6 -6 10 3 14 13 5 17
        23 5 23 -5 0 -16 -5 -25 -11z"/>
        <path d="M1867 2461 c-19 -33 -22 -51 -7 -51 6 0 10 8 10 18 0 10 5 23 11 29
        6 6 10 16 8 22 -3 7 -12 -1 -22 -18z"/>
        <path d="M1910 2425 c0 -8 5 -15 10 -15 6 0 10 7 10 15 0 8 -4 15 -10 15 -5 0
        -10 -7 -10 -15z"/>
        <path d="M2090 2345 c0 -8 5 -15 10 -15 6 0 10 7 10 15 0 8 -4 15 -10 15 -5 0
        -10 -7 -10 -15z"/>
        <path d="M1740 2250 c0 -5 5 -10 10 -10 6 0 10 5 10 10 0 6 -4 10 -10 10 -5 0
        -10 -4 -10 -10z"/>
        <path d="M1710 2190 c0 -5 5 -10 10 -10 6 0 10 5 10 10 0 6 -4 10 -10 10 -5 0
        -10 -4 -10 -10z"/>
        <path d="M1641 2016 c-22 -57 -41 -114 -41 -127 1 -13 16 17 34 66 18 50 40
        107 49 128 9 20 12 37 8 37 -5 0 -27 -47 -50 -104z"/>
        <path d="M1526 1702 c-2 -4 -7 -25 -11 -46 -6 -28 -5 -37 4 -32 6 4 11 18 11
        32 0 13 5 24 10 24 6 0 10 7 10 15 0 16 -15 21 -24 7z"/>
        <path d="M2390 1970 c0 -5 5 -10 10 -10 6 0 10 5 10 10 0 6 -4 10 -10 10 -5 0
        -10 -4 -10 -10z"/>
        <path d="M955 2479 c-11 -17 119 -218 132 -205 4 3 15 -1 25 -11 10 -9 18 -12
        18 -6 0 5 -9 18 -20 28 -11 10 -20 14 -20 10 0 -4 -9 0 -20 10 -11 10 -20 23
        -20 29 0 6 10 0 21 -14 11 -14 19 -20 17 -15 -4 14 -118 185 -123 185 -2 0 -7
        -5 -10 -11z m35 -40 c15 -28 5 -23 -15 7 -9 15 -12 23 -6 20 6 -4 16 -16 21
        -27z m51 -84 c10 -20 10 -20 -6 0 -9 11 -21 29 -26 40 -10 20 -10 20 6 0 9
        -11 21 -29 26 -40z"/>
        <path d="M892 2389 c-13 -16 -19 -29 -15 -29 9 0 53 46 53 55 0 13 -17 1 -38
        -26z"/>
        <path d="M1507 2300 c-57 -11 -59 -23 -2 -15 53 8 98 25 60 24 -11 -1 -37 -5
        -58 -9z"/>
        <path d="M1390 2279 c0 -5 5 -7 10 -4 6 3 10 8 10 11 0 2 -4 4 -10 4 -5 0 -10
        -5 -10 -11z"/>
        <path d="M920 2240 c0 -5 5 -10 11 -10 5 0 7 5 4 10 -3 6 -8 10 -11 10 -2 0
        -4 -4 -4 -10z"/>
        <path d="M850 2209 c0 -5 5 -7 10 -4 6 3 10 8 10 11 0 2 -4 4 -10 4 -5 0 -10
        -5 -10 -11z"/>
        <path d="M870 2189 c0 -5 5 -7 10 -4 6 3 10 8 10 11 0 2 -4 4 -10 4 -5 0 -10
        -5 -10 -11z"/>
        <path d="M780 2020 c0 -5 5 -10 10 -10 6 0 10 5 10 10 0 6 -4 10 -10 10 -5 0
        -10 -4 -10 -10z"/>
        <path d="M720 1990 c0 -5 5 -10 10 -10 6 0 10 5 10 10 0 6 -4 10 -10 10 -5 0
        -10 -4 -10 -10z"/>
        <path d="M942 1960 c-19 -4 -39 -13 -45 -20 -10 -10 -8 -11 8 -5 48 18 77 24
        93 19 15 -5 15 -4 2 5 -8 6 -17 10 -20 10 -3 -1 -20 -5 -38 -9z"/>
        <path d="M776 1755 c-15 -25 -26 -48 -24 -51 3 -2 19 18 36 46 17 27 28 50 24
        50 -4 0 -20 -20 -36 -45z"/>
        <path d="M1450 1880 c0 -5 5 -10 10 -10 6 0 10 5 10 10 0 6 -4 10 -10 10 -5 0
        -10 -4 -10 -10z"/>
        <path d="M1256 1780 c-57 -22 -96 -56 -96 -82 0 -18 2 -18 31 3 17 12 47 30
        67 40 20 10 31 18 24 19 -7 0 -27 -7 -43 -16 -17 -8 -33 -13 -36 -10 -7 7 46
        32 85 41 17 3 32 11 32 16 0 12 -7 11 -64 -11z m-61 -60 c-3 -5 -11 -10 -16
        -10 -6 0 -7 5 -4 10 3 6 11 10 16 10 6 0 7 -4 4 -10z"/>
        <path d="M970 1760 c-29 -41 -20 -49 9 -9 13 17 21 33 18 35 -3 3 -15 -9 -27
        -26z"/>
        <path d="M1156 1444 c-27 -31 -40 -52 -29 -46 22 12 99 102 86 102 -4 0 -30
        -26 -57 -56z"/>
        <path d="M2166 1585 c52 -135 56 -159 52 -267 -2 -59 -1 -105 4 -102 13 9 9
        227 -5 275 -8 24 -24 60 -36 79 -13 19 -20 26 -15 15z"/>
        <path d="M1477 1303 c18 -123 87 -304 146 -383 51 -68 118 -140 131 -140 6 0
        -8 19 -31 43 -49 51 -143 175 -143 188 0 5 -16 49 -35 98 -19 49 -40 121 -46
        160 -7 39 -15 71 -20 71 -4 0 -5 -17 -2 -37z"/>
        <path d="M1642 1099 c23 -42 114 -139 130 -139 4 0 -18 26 -50 58 -32 32 -64
        72 -71 90 -7 18 -18 32 -23 32 -5 0 1 -19 14 -41z"/>
        <path d="M2241 1104 c0 -11 3 -14 6 -6 3 7 2 16 -1 19 -3 4 -6 -2 -5 -13z"/>
        <path d="M1580 1056 c24 -65 86 -128 212 -214 27 -18 54 -31 61 -29 7 3 4 8
        -8 12 -45 17 -201 145 -225 184 -41 69 -52 81 -40 47z"/>
        <path d="M2103 955 c-127 -35 -184 -82 -235 -193 -21 -46 -50 -95 -64 -109
        -14 -14 -23 -28 -20 -31 13 -12 49 37 90 123 27 56 57 103 79 122 53 47 138
        76 232 80 90 4 98 0 138 -64 29 -45 78 -87 117 -98 14 -4 35 -14 48 -21 12 -8
        27 -12 32 -9 14 8 13 35 -1 35 -6 0 -9 -6 -6 -14 4 -10 -7 -9 -45 7 -51 22
        -94 59 -158 136 -33 39 -39 42 -95 46 -37 3 -81 -1 -112 -10z"/>
        <path d="M2320 936 c0 -2 7 -9 15 -16 9 -7 15 -8 15 -2 0 5 -7 12 -15 16 -8 3
        -15 4 -15 2z"/>
        <path d="M1670 634 c0 -17 55 -74 72 -74 7 0 3 8 -11 19 -13 10 -32 29 -42 42
        -10 13 -19 19 -19 13z"/>
        <path d="M1835 550 c3 -5 8 -10 11 -10 2 0 4 5 4 10 0 6 -5 10 -11 10 -5 0 -7
        -4 -4 -10z"/>
        <path d="M1770 528 c0 -11 28 -10 35 1 3 6 -4 9 -15 8 -11 -1 -20 -5 -20 -9z"/>
        <path d="M1955 1620 c-3 -5 -1 -10 4 -10 6 0 11 5 11 10 0 6 -2 10 -4 10 -3 0
        -8 -4 -11 -10z"/>
        <path d="M1850 1594 c-34 -11 -52 -12 -78 -3 -27 9 -37 8 -48 -2 -11 -12 -4
        -14 49 -13 57 1 147 19 147 29 0 8 -21 4 -70 -11z"/>
        <path d="M1160 1278 c0 -11 12 -10 30 2 12 7 10 9 -8 7 -12 0 -22 -5 -22 -9z"/>
        <path d="M1240 1090 c0 -5 5 -10 10 -10 6 0 10 5 10 10 0 6 -4 10 -10 10 -5 0
        -10 -4 -10 -10z"/>
        <path d="M1310 934 c0 -14 27 -50 33 -44 3 3 -3 16 -13 30 -11 14 -20 20 -20
        14z"/>
        <path d="M1484 522 c9 -17 16 -36 16 -42 0 -18 54 -140 62 -140 4 0 2 12 -4
        28 -6 15 -23 60 -38 101 -14 41 -32 77 -39 79 -9 3 -8 -4 3 -26z"/>
        <path d="M1565 299 c4 -19 14 -45 22 -59 l14 -25 -6 25 c-4 14 -9 37 -12 53
        -3 15 -10 30 -15 33 -7 4 -8 -6 -3 -27z"/>
        <path d="M1282 1320 c0 -41 4 -86 8 -100 7 -21 8 -19 8 15 0 22 -4 67 -8 100
        l-7 60 -1 -75z"/>
        <path d="M817 980 c52 -89 145 -136 317 -161 84 -12 92 -15 129 -52 50 -50 58
        -43 10 9 -36 38 -43 41 -143 58 -158 27 -212 49 -265 110 -25 28 -45 54 -45
        58 0 5 -5 8 -11 8 -5 0 -2 -14 8 -30z"/>
        <path d="M1030 693 c0 -5 9 -18 20 -28 11 -10 20 -14 20 -8 0 5 -9 18 -20 28
        -11 10 -20 14 -20 8z"/>
        <path d="M2050 680 c-9 -6 -10 -10 -3 -10 6 0 15 5 18 10 8 12 4 12 -15 0z"/>
        <path d="M2410 550 c0 -11 5 -20 10 -20 6 0 10 9 10 20 0 11 -4 20 -10 20 -5
        0 -10 -9 -10 -20z"/>
        <path d="M2130 500 c0 -5 5 -10 10 -10 6 0 10 5 10 10 0 6 -4 10 -10 10 -5 0
        -10 -4 -10 -10z"/>
        <path d="M964 345 c-9 -37 2 -41 14 -6 7 18 7 31 2 31 -5 0 -12 -11 -16 -25z"/>
        <path d="M1070 3415 c0 -8 5 -15 10 -15 6 0 10 7 10 15 0 8 -4 15 -10 15 -5 0
        -10 -7 -10 -15z"/>
        <path d="M1657 3423 c-13 -13 -7 -21 13 -16 11 3 20 9 20 14 0 10 -24 12 -33
        2z"/>
    </g>
</svg>
